<svg width="109" height="36" viewBox="0 0 109 36" fill="none" xmlns="http://www.w3.org/2000/svg">
<path d="M38.3073 13.9135H33.1876C33.1876 13.3714 33.0069 13.01 32.6455 12.8293C32.2841 12.5884 31.8023 12.5282 31.2602 12.5282C30.1158 12.5282 29.5135 12.8293 29.393 13.4919C29.2726 14.0942 29.9351 14.576 31.3807 14.9977C33.6695 15.6602 35.0548 16.0818 35.4764 16.2625C36.9822 16.9853 37.7652 18.1297 37.7652 19.515C37.7652 19.8162 37.705 20.0571 37.6447 20.3583C37.3436 22.2254 36.3799 23.6108 34.7536 24.6347C33.2478 25.5382 31.3204 26.02 28.9714 26.02C27.044 26.02 25.478 25.5382 24.2733 24.5745C23.1892 23.671 22.5869 22.5266 22.5869 21.1413C22.5869 20.9004 22.5869 20.7197 22.6471 20.4787H27.827C27.827 21.0208 28.0679 21.4424 28.4895 21.7436C28.9112 22.0448 29.393 22.1652 29.9953 22.1652C31.5011 22.1652 32.2841 21.7436 32.4648 20.9606C32.5853 20.3583 31.9227 19.8764 30.4772 19.4548C28.2486 18.8525 26.8633 18.4309 26.3814 18.1899C24.8757 17.4672 24.1529 16.3228 24.1529 14.817C24.1529 14.5158 24.2131 14.2146 24.2733 13.8533C24.5745 12.1668 25.478 10.8417 26.9838 9.93821C28.4293 9.03473 30.176 8.61311 32.2841 8.61311C34.4525 8.61311 36.0787 9.09497 37.1027 10.1189C37.9459 11.1428 38.3675 12.3475 38.3073 13.9135Z" fill="white"/>
<path d="M41.2586 25.5984H35.9582L44.752 9.1552H50.2331L53.2446 25.5984H47.884L47.6431 23.4301H42.2825L41.2586 25.5984ZM47.2817 19.9969L46.6192 14.0942L43.9088 19.9969H47.2817Z" fill="white"/>
<path d="M63.3636 8.73359C65.7729 8.73359 67.6401 9.39614 68.9049 10.7815C70.0493 12.0463 70.6516 13.6123 70.6516 15.6C70.6516 16.1421 70.5914 16.7444 70.4709 17.3467C69.9891 20.0571 68.7845 22.2255 66.857 23.7915C64.9899 25.2973 62.8215 26.0803 60.2918 26.0803C58.003 26.0803 56.2563 25.478 54.9312 24.3336C53.6663 23.1289 53.0038 21.4424 53.0038 19.3343C53.0038 18.6718 53.064 18.0093 53.1845 17.2262C53.6061 14.6363 54.8107 12.5884 56.6779 11.0224C58.5451 9.5166 60.7737 8.73359 63.3636 8.73359ZM62.5806 12.7691C61.4964 12.7691 60.5327 13.3112 59.81 14.2749C59.2076 15.0579 58.786 16.0818 58.6053 17.2865C58.4849 17.8286 58.4849 18.3706 58.4849 18.8525C58.4849 20.9606 59.3281 22.0448 61.0146 22.0448C63.1829 22.0448 64.508 20.4787 65.1103 17.2865C65.2308 16.8046 65.2308 16.383 65.2308 15.9614C65.2308 13.793 64.3273 12.7089 62.5806 12.7691Z" fill="white"/>
<path d="M80.4091 16.5637C80.4091 14.6965 79.3249 13.793 77.5782 13.793C76.4941 13.793 74.9883 14.2146 74.9883 15.6602C74.9883 16.6841 76.0724 17.1058 76.8554 17.4672L79.3852 18.5513C80.5898 19.0332 81.6137 20.1173 81.6137 21.5027C81.6137 24.6347 79.084 25.8393 76.4941 25.8393C73.1813 25.8393 71.2539 24.3938 71.2539 20.8401H73.362C73.362 23.0687 74.0848 24.0324 76.735 24.0324C78.1805 24.0324 79.5056 23.3698 79.5056 22.0448C79.5056 21.081 78.9033 20.6594 78.1805 20.298L75.8315 19.2741C74.2053 18.5513 72.9404 17.7683 72.9404 15.7204C72.9404 14.3953 74.145 11.9258 77.518 11.9258C80.65 11.9258 82.5172 13.3714 82.5172 16.5034H80.4091V16.5637Z" fill="white"/>
<path d="M84.3844 14.2146H82.5774L82.9388 12.4077H84.7458L85.589 8.91427H87.6971L86.9141 12.4077H89.2631L88.962 14.2146H86.4925L84.9265 21.7436C84.806 22.4664 84.7458 22.7675 84.7458 23.0085C84.7458 23.5505 85.1674 23.7915 85.7697 23.7915C86.2516 23.7915 86.7334 23.7312 87.0948 23.671L86.7334 25.4779C86.3118 25.5382 85.8902 25.6586 85.2276 25.6586C83.6014 25.6586 82.5172 24.9961 82.5172 23.5505C82.5172 23.3096 82.5172 23.0085 82.5774 22.7073L84.3844 14.2146Z" fill="white"/>
<path d="M97.7558 21.9845C97.6353 22.5868 97.5751 22.9482 97.5751 23.1892C97.5751 23.6108 97.8763 23.9722 98.4786 23.9722C98.6593 23.9722 98.84 23.9722 99.0207 23.9119L98.7195 25.5382C98.2979 25.5984 97.8763 25.6587 97.5149 25.6587C95.9489 25.6587 95.5875 24.6347 95.5272 24.0324H95.467C95.2863 24.5143 93.9612 25.8996 91.4315 25.8996C88.4199 25.8996 87.3358 23.7915 87.3358 22.105C87.3358 19.1536 89.3836 17.949 91.8531 17.7683L94.9249 17.5876C96.6716 17.4672 97.033 16.7444 97.033 15.6602C97.033 14.3351 96.0091 13.8533 94.2021 13.8533C92.3952 13.8533 91.2508 14.6363 91.0099 16.2023H88.8415C89.2632 13.2509 91.6724 12.0463 94.4431 12.0463C96.5512 12.0463 99.2014 12.5884 99.2014 15.1784C99.2014 15.8409 99.0809 16.5035 98.7797 17.7081L97.7558 21.9845ZM96.25 18.8525C95.5875 19.1536 94.2021 19.2139 92.4554 19.3946C90.5883 19.5753 89.5041 20.539 89.5041 21.9243C89.5041 23.3699 90.528 24.0324 91.7929 24.0324C94.5635 24.0324 95.7682 21.9243 96.25 18.8525Z" fill="white"/>
<path d="M102.213 12.4077H104.261L103.719 15.0579C103.719 15.0579 104.622 13.9135 104.743 13.7328C105.285 13.1305 106.309 12.227 107.754 12.227L108.357 12.2872L107.935 14.6965C107.694 14.6965 107.453 14.6363 107.212 14.6363C104.682 14.6363 103.297 17.4069 103.056 18.9127L101.611 25.5382H99.4423L102.213 12.4077Z" fill="white"/>
<path d="M2.16833 8.3722L6.6857 11.3235H6.74593H13.4316V10.9019V10.6008L17.2262 12.8293L13.4316 14.9977V14.6965V14.2749H10.7212H4.99922V14.6965H10.4803L5.60153 24.1529L14.9374 16.7444L20.4787 20.4185L19.5753 13.1907L25.7189 8.3722H18.9729L18.0092 7.62939e-06L13.7328 8.3722" fill="white"/>
<path d="M13.4316 13.4316H8.97449V13.8533H13.4316V13.4316Z" fill="white"/>
<path d="M2.22854 10.9019H1.62622V11.3235H2.22854V10.9019Z" fill="white"/>
<path d="M4.51736 10.9019H3.91504V11.3235H4.51736V10.9019Z" fill="white"/>
<path d="M5.72201 10.9019H5.11969V11.3235H5.72201V10.9019Z" fill="white"/>
<path d="M3.73442 11.7452H2.89117V12.1668H3.73442V11.7452Z" fill="white"/>
<path d="M4.93899 11.7452H4.33667V12.1668H4.93899V11.7452Z" fill="white"/>
<path d="M13.4317 11.7452H5.60156V12.1668H13.4317V11.7452Z" fill="white"/>
<path d="M0.602316 12.5884H0V13.01H0.602316V12.5884Z" fill="white"/>
<path d="M2.22854 12.5884H1.26483V13.01H2.22854V12.5884Z" fill="white"/>
<path d="M13.4317 12.5884H2.89117V13.01H13.4317V12.5884Z" fill="white"/>
<path d="M7.64937 13.4316H7.04706V13.8533H7.64937V13.4316Z" fill="white"/>
<path d="M6.38454 13.4316H5.78223V13.8533H6.38454V13.4316Z" fill="white"/>
<path d="M4.93899 13.4316H4.33667V13.8533H4.93899V13.4316Z" fill="white"/>
<path d="M4.39693 14.2749H3.79462V14.6965H4.39693V14.2749Z" fill="white"/>
<path d="M2.71041 14.2749H2.10809V14.6965H2.71041V14.2749Z" fill="white"/>
<path d="M1.68654 14.2749H1.08423V14.6965H1.68654V14.2749Z" fill="white"/>
<path d="M21.2506 30.9009L21.3666 30.2075H25.0097L24.8938 30.9009H23.4825L22.8403 34.7737H22.0198L22.662 30.9009H21.2506Z" fill="white"/>
<path d="M26.9977 34.7737H26.1148L28.4804 30.2075H29.5016L30.3533 34.7737H29.4703L28.8572 31.1439H28.8215L26.9977 34.7737ZM27.3232 32.9833H29.7312L29.6197 33.6478H27.2117L27.3232 32.9833ZM28.0701 36C27.9423 36 27.8353 35.9569 27.7491 35.8707C27.6644 35.7845 27.6279 35.6819 27.6398 35.563C27.6502 35.4411 27.7045 35.3371 27.8026 35.2509C27.9022 35.1661 28.0159 35.1238 28.1437 35.1238C28.273 35.1238 28.3793 35.1661 28.4626 35.2509C28.5473 35.3371 28.5844 35.4411 28.574 35.563C28.5636 35.6819 28.5094 35.7845 28.4113 35.8707C28.3132 35.9569 28.1995 36 28.0701 36Z" fill="white"/>
<path d="M32.9638 34.7737L33.7219 30.2075H35.4343C35.785 30.2075 36.069 30.2729 36.286 30.4037C36.503 30.533 36.6539 30.7121 36.7386 30.941C36.8233 31.1684 36.8411 31.4278 36.7921 31.7192C36.7445 32.012 36.6397 32.2721 36.4777 32.4995C36.3172 32.7269 36.1054 32.9061 35.8423 33.0369C35.5792 33.1662 35.2715 33.2308 34.9192 33.2308H33.7843L33.8981 32.5508H34.9214C35.1266 32.5508 35.3005 32.5151 35.4432 32.4438C35.5874 32.3724 35.7011 32.2743 35.7843 32.1495C35.8675 32.0246 35.9225 31.8812 35.9493 31.7192C35.9746 31.5571 35.9664 31.4144 35.9248 31.2911C35.8831 31.1677 35.8021 31.0718 35.6817 31.0035C35.5628 30.9336 35.4001 30.8987 35.1935 30.8987H34.4354L33.791 34.7737H32.9638Z" fill="white"/>
<path d="M46.9797 31.7481H46.1592C46.1592 31.6114 46.1369 31.4902 46.0923 31.3847C46.0477 31.2777 45.9853 31.187 45.905 31.1127C45.8248 31.0384 45.7296 30.9826 45.6196 30.9455C45.5097 30.9068 45.3878 30.8875 45.254 30.8875C44.9983 30.8875 44.7605 30.9522 44.5405 31.0815C44.3205 31.2108 44.134 31.3988 43.9809 31.6456C43.8278 31.8908 43.7215 32.1889 43.6621 32.5397C43.6071 32.8815 43.6123 33.1677 43.6777 33.3981C43.7445 33.6284 43.8605 33.8024 44.0255 33.9198C44.1905 34.0357 44.3911 34.0937 44.6275 34.0937C44.7717 34.0937 44.9099 34.0759 45.0422 34.0402C45.1745 34.003 45.2964 33.9488 45.4078 33.8774C45.5208 33.8046 45.6196 33.7161 45.7044 33.6121C45.7906 33.508 45.8575 33.3899 45.905 33.2576H46.7367C46.6683 33.4746 46.568 33.679 46.4357 33.8707C46.3034 34.061 46.1444 34.229 45.9586 34.3746C45.7727 34.5188 45.5647 34.6318 45.3343 34.7135C45.1039 34.7953 44.8556 34.8362 44.5896 34.8362C44.1808 34.8362 43.8308 34.741 43.5394 34.5508C43.2496 34.359 43.0415 34.0848 42.9151 33.728C42.7888 33.3698 42.7665 32.941 42.8482 32.4416C42.93 31.9555 43.0876 31.5415 43.3209 31.1997C43.5558 30.8578 43.8419 30.5969 44.1793 30.4171C44.5182 30.2357 44.8831 30.1451 45.2741 30.1451C45.5327 30.1451 45.7675 30.1807 45.9786 30.2521C46.1912 30.3234 46.3733 30.4282 46.5249 30.5664C46.6765 30.7032 46.7917 30.8712 46.8705 31.0703C46.9507 31.268 46.9871 31.494 46.9797 31.7481Z" fill="white"/>
<path d="M49.2492 34.7737L50.0072 30.2075H50.8344L50.5134 32.1406H52.6293L52.9503 30.2075H53.7797L53.0217 34.7737H52.1923L52.5133 32.834H50.3974L50.0763 34.7737H49.2492Z" fill="white"/>
<path d="M57.5157 30.2075L56.7576 34.7737H55.9305L56.6885 30.2075H57.5157ZM56.8669 29.7571L57.5336 28.7382H58.3228L57.4689 29.7571H56.8669Z" fill="white"/>
<path d="M64.7987 34.7737H63.6193L63.7374 34.058H64.8411C65.1577 34.058 65.4334 33.9978 65.6683 33.8774C65.9046 33.7555 66.0971 33.5749 66.2457 33.3356C66.3959 33.0948 66.4999 32.7961 66.5579 32.4393C66.6158 32.0974 66.6121 31.815 66.5467 31.5921C66.4813 31.3676 66.3542 31.2004 66.1655 31.0904C65.9782 30.9789 65.7299 30.9232 65.4208 30.9232H64.2346L64.3528 30.2075H65.5434C65.9968 30.2075 66.3728 30.3011 66.6716 30.4884C66.9704 30.6757 67.1799 30.9433 67.3003 31.2911C67.4222 31.6374 67.443 32.0506 67.3628 32.5307C67.2855 33.0004 67.1331 33.4025 66.9057 33.737C66.6783 34.0714 66.3862 34.3278 66.0295 34.5062C65.6727 34.6845 65.2625 34.7737 64.7987 34.7737ZM64.8143 30.2075L64.0563 34.7737H63.2291L63.9871 30.2075H64.8143ZM62.9883 32.6378L63.0775 32.1294H65.2134L65.1242 32.6378H62.9883Z" fill="white"/>
<path d="M71.373 30.2075L70.6149 34.7737H69.7877L70.5458 30.2075H71.373Z" fill="white"/>
<path d="M73.5198 34.7737L74.2779 30.2075H77.2477L77.1318 30.9009H74.9891L74.784 32.1406H76.7728L76.6569 32.834H74.6681L74.4629 34.0803H76.6234L76.5075 34.7737H73.5198ZM76.289 29.7972L75.93 29.2265L75.3838 29.7972H74.677L74.6814 29.766L75.6825 28.8028H76.3135L77.0002 29.766L76.9958 29.7972H76.289ZM74.8174 36C74.6896 36 74.5826 35.9569 74.4964 35.8707C74.4117 35.7845 74.3752 35.6819 74.3871 35.563C74.3975 35.4411 74.4518 35.3371 74.5499 35.2509C74.6495 35.1661 74.7632 35.1238 74.891 35.1238C75.0203 35.1238 75.1266 35.1661 75.2099 35.2509C75.2946 35.3371 75.3317 35.4411 75.3213 35.563C75.3109 35.6819 75.2567 35.7845 75.1586 35.8707C75.0605 35.9569 74.9468 36 74.8174 36Z" fill="white"/>
<path d="M83.8532 30.2075L83.0951 34.7737H82.3594L80.7251 31.6634H80.6894L80.1699 34.7737H79.3427L80.1008 30.2075H80.841L82.4731 33.32H82.5154L83.0305 30.2075H83.8532Z" fill="white"/>
<path d="M90.0136 30.9009L90.1295 30.2075H93.7727L93.6568 30.9009H92.2454L91.6033 34.7737H90.7828L91.4249 30.9009H90.0136Z" fill="white"/>
<path d="M100.689 30.0068H101.271C101.221 30.3056 101.136 30.5598 101.017 30.7693C100.9 30.9789 100.733 31.1395 100.518 31.2509C100.304 31.3609 100.028 31.4159 99.6904 31.4159L99.7729 30.9343C99.9943 30.9343 100.165 30.8979 100.286 30.8251C100.406 30.7522 100.495 30.6467 100.553 30.5085C100.611 30.3702 100.657 30.203 100.689 30.0068ZM99.3626 30.2075H100.19L99.6948 33.1907C99.6413 33.5177 99.5165 33.8053 99.3203 34.0536C99.1255 34.3018 98.8773 34.4958 98.5756 34.6355C98.2738 34.7737 97.9379 34.8428 97.5678 34.8428C97.1947 34.8428 96.8811 34.7737 96.6269 34.6355C96.3727 34.4958 96.1891 34.3018 96.0762 34.0536C95.9647 33.8053 95.9357 33.5177 95.9892 33.1907L96.4842 30.2075H97.3114L96.8276 33.1216C96.7963 33.3118 96.8105 33.4813 96.8699 33.6299C96.9309 33.7771 97.0304 33.893 97.1687 33.9778C97.3084 34.0625 97.4831 34.1048 97.6926 34.1048C97.9022 34.1048 98.091 34.0625 98.259 33.9778C98.4269 33.893 98.5644 33.7771 98.6714 33.6299C98.7785 33.4813 98.8476 33.3118 98.8788 33.1216L99.3626 30.2075ZM98.7272 29.7259H98.1118L98.1497 29.2978C98.3073 29.2919 98.4217 29.2718 98.4931 29.2376C98.5644 29.2019 98.6046 29.1529 98.6135 29.0904C98.6283 29.0102 98.5941 28.9544 98.5109 28.9232C98.4277 28.892 98.3214 28.8764 98.1921 28.8764L98.2835 28.4773C98.6506 28.4773 98.9204 28.5308 99.0928 28.6378C99.2653 28.7449 99.3366 28.8905 99.3069 29.0748C99.2831 29.216 99.2162 29.3216 99.1062 29.3914C98.9977 29.4598 98.8818 29.5029 98.7584 29.5208L98.7272 29.7259Z" fill="white"/>
</svg>
